<svg version="1.1" width="356px" height="356px" viewBox="-62.9 -62.9 356.9 356.9" >

<defs>
<clipPath id="clip0">
  <path d="M0 0 H14 H28 H42 H56 H70 H84 H98 H112 H126 H140 H154 H168 H182 H196 H210 H224 H238 H252 H266 H280 V14 H266 V28 H252 L245 35 L238 42 V56 H224 V70 H210 L203 77 L196 84 V98 H182 V112 H168 L161 119 L154 126 L147 133 L140 140 V154 H126 L119 161 L112 154 L105 161 L98 168 L105 175 L98 182 V196 H84 L77 203 L70 210 L63 217 L56 224 L49 231 L42 224 L35 217 L28 224 L35 231 L28 238 L35 245 L28 252 V266 H14 V280 H0 V266 V252 V238 V224 V210 V196 V182 V168 V154 V140 V126 V112 V98 V84 V70 V56 V42 V28 V14 Z" />
</clipPath>
<clipPath id="clip1">
  <path d="M0 0 H14 V11.25 H0 Z" />
</clipPath>
</defs>
<path d="M0 0 H14 H28 H42 H56 H70 H84 H98 H112 H126 H140 H154 H168 H182 H196 H210 H224 H238 H252 H266 H280 V14 H266 V28 H252 L245 35 L238 42 V56 H224 V70 H210 L203 77 L196 84 V98 H182 V112 H168 L161 119 L154 126 L147 133 L140 140 V154 H126 L119 161 L112 154 L105 161 L98 168 L105 175 L98 182 V196 H84 L77 203 L70 210 L63 217 L56 224 L49 231 L42 224 L35 217 L28 224 L35 231 L28 238 L35 245 L28 252 V266 H14 V280 H0 V266 V252 V238 V224 V210 V196 V182 V168 V154 V140 V126 V112 V98 V84 V70 V56 V42 V28 V14 Z" fill="#00e80a" />
<g clip-path="url(#clip0)">
<path d="M-14 266 L14 294" fill="none" stroke="#4cee53" stroke-width="4.94974746831" />
<path d="M-14 252 L28 294" fill="none" stroke="#4cee53" stroke-width="4.94974746831" />
<path d="M-14 238 L42 294" fill="none" stroke="#4cee53" stroke-width="4.94974746831" />
<path d="M-14 224 L56 294" fill="none" stroke="#4cee53" stroke-width="4.94974746831" />
<path d="M-14 210 L70 294" fill="none" stroke="#4cee53" stroke-width="4.94974746831" />
<path d="M-14 196 L84 294" fill="none" stroke="#4cee53" stroke-width="4.94974746831" />
<path d="M-14 182 L98 294" fill="none" stroke="#4cee53" stroke-width="4.94974746831" />
<path d="M-14 168 L112 294" fill="none" stroke="#4cee53" stroke-width="4.94974746831" />
<path d="M-14 154 L126 294" fill="none" stroke="#4cee53" stroke-width="4.94974746831" />
<path d="M-14 140 L140 294" fill="none" stroke="#4cee53" stroke-width="4.94974746831" />
<path d="M-14 126 L154 294" fill="none" stroke="#4cee53" stroke-width="4.94974746831" />
<path d="M-14 112 L168 294" fill="none" stroke="#4cee53" stroke-width="4.94974746831" />
<path d="M-14 98 L182 294" fill="none" stroke="#4cee53" stroke-width="4.94974746831" />
<path d="M-14 84 L196 294" fill="none" stroke="#4cee53" stroke-width="4.94974746831" />
<path d="M-14 70 L210 294" fill="none" stroke="#4cee53" stroke-width="4.94974746831" />
<path d="M-14 56 L224 294" fill="none" stroke="#4cee53" stroke-width="4.94974746831" />
<path d="M-14 42 L238 294" fill="none" stroke="#4cee53" stroke-width="4.94974746831" />
<path d="M-14 28 L252 294" fill="none" stroke="#4cee53" stroke-width="4.94974746831" />
<path d="M-14 14 L266 294" fill="none" stroke="#4cee53" stroke-width="4.94974746831" />
<path d="M-14 0 L280 294" fill="none" stroke="#4cee53" stroke-width="4.94974746831" />
<path d="M-14 -14 L294 294" fill="none" stroke="#4cee53" stroke-width="4.94974746831" />
<path d="M0 -14 L294 280" fill="none" stroke="#4cee53" stroke-width="4.94974746831" />
<path d="M14 -14 L294 266" fill="none" stroke="#4cee53" stroke-width="4.94974746831" />
<path d="M28 -14 L294 252" fill="none" stroke="#4cee53" stroke-width="4.94974746831" />
<path d="M42 -14 L294 238" fill="none" stroke="#4cee53" stroke-width="4.94974746831" />
<path d="M56 -14 L294 224" fill="none" stroke="#4cee53" stroke-width="4.94974746831" />
<path d="M70 -14 L294 210" fill="none" stroke="#4cee53" stroke-width="4.94974746831" />
<path d="M84 -14 L294 196" fill="none" stroke="#4cee53" stroke-width="4.94974746831" />
<path d="M98 -14 L294 182" fill="none" stroke="#4cee53" stroke-width="4.94974746831" />
<path d="M112 -14 L294 168" fill="none" stroke="#4cee53" stroke-width="4.94974746831" />
<path d="M126 -14 L294 154" fill="none" stroke="#4cee53" stroke-width="4.94974746831" />
<path d="M140 -14 L294 140" fill="none" stroke="#4cee53" stroke-width="4.94974746831" />
<path d="M154 -14 L294 126" fill="none" stroke="#4cee53" stroke-width="4.94974746831" />
<path d="M168 -14 L294 112" fill="none" stroke="#4cee53" stroke-width="4.94974746831" />
<path d="M182 -14 L294 98" fill="none" stroke="#4cee53" stroke-width="4.94974746831" />
<path d="M196 -14 L294 84" fill="none" stroke="#4cee53" stroke-width="4.94974746831" />
<path d="M210 -14 L294 70" fill="none" stroke="#4cee53" stroke-width="4.94974746831" />
<path d="M224 -14 L294 56" fill="none" stroke="#4cee53" stroke-width="4.94974746831" />
<path d="M238 -14 L294 42" fill="none" stroke="#4cee53" stroke-width="4.94974746831" />
<path d="M252 -14 L294 28" fill="none" stroke="#4cee53" stroke-width="4.94974746831" />
<path d="M266 -14 L294 14" fill="none" stroke="#4cee53" stroke-width="4.94974746831" />
</g>
<path d="M238 28 H252 V42 H238 Z" fill="#f4e51a" />
<path d="M196 70 H210 V84 H196 Z" fill="#f3f119" />
<path d="M98 112 H112 L119 119 L112 126 L105 133 L98 126 Z" fill="#f0f318" />
<path d="M112 112 H126 V126 L119 133 L112 126 Z" fill="#f0f318" />
<path d="M154 112 H168 V126 H154 Z" fill="#f1f318" />
<path d="M98 126 H112 L119 133 L112 140 H98 Z" fill="#f0f318" />
<path d="M112 126 H126 V140 H112 Z" fill="#f0f318" />
<path d="M140 126 H154 V140 H140 Z" fill="#f4ec19" />
<path d="M98 154 H112 L119 161 L112 168 L105 175 L98 168 Z" fill="#f3f119" />
<path d="M112 154 H126 V168 H112 Z" fill="#f3f219" />
<path d="M70 168 H84 V182 H70 Z" fill="#f3f219" />
<path d="M98 168 H112 V182 H98 Z" fill="#f4ea1a" />
<path d="M70 196 H84 V210 H70 Z" fill="#f4ee19" />
<path d="M28 210 H42 V224 L35 231 L28 224 Z" fill="#f3f119" />
<path d="M56 210 H70 V224 H56 Z" fill="#eff318" />
<path d="M28 224 H42 L49 231 L42 238 L35 245 L28 238 Z" fill="#f3f219" />
<path d="M42 224 H56 V238 H42 Z" fill="#f4dd1b" />
<path d="M28 238 H42 V252 H28 Z" fill="#f4eb19" />
<path d="M0 56 H238" fill="none" stroke="#ffffff" />
<path d="M56 0 V238" fill="none" stroke="#ffffff" />
<path d="M0 112 H182" fill="none" stroke="#ffffff" />
<path d="M112 0 V182" fill="none" stroke="#ffffff" />
<path d="M0 168 H126" fill="none" stroke="#ffffff" />
<path d="M168 0 V126" fill="none" stroke="#ffffff" />
<path d="M0 224 H70" fill="none" stroke="#ffffff" />
<path d="M224 0 V70" fill="none" stroke="#ffffff" />
<text x="245" y="35" text-anchor="middle" font-size="6pt" dy="1.98pt" fill="#000000">12</text>
<text x="203" y="77" text-anchor="middle" font-size="6pt" dy="1.98pt" fill="#000000">2</text>
<text x="105" y="119" text-anchor="middle" font-size="6pt" dy="1.98pt" fill="#000000">2</text>
<text x="119" y="119" text-anchor="middle" font-size="6pt" dy="1.98pt" fill="#000000">4</text>
<text x="161" y="119" text-anchor="middle" font-size="6pt" dy="1.98pt" fill="#000000">14</text>
<text x="105" y="133" text-anchor="middle" font-size="6pt" dy="1.98pt" fill="#000000">1</text>
<text x="119" y="133" text-anchor="middle" font-size="6pt" dy="1.98pt" fill="#000000">1</text>
<text x="147" y="133" text-anchor="middle" font-size="6pt" dy="1.98pt" fill="#000000">4</text>
<text x="105" y="161" text-anchor="middle" font-size="6pt" dy="1.98pt" fill="#000000">6</text>
<text x="119" y="161" text-anchor="middle" font-size="6pt" dy="1.98pt" fill="#000000">6</text>
<text x="77" y="175" text-anchor="middle" font-size="6pt" dy="1.98pt" fill="#000000">5</text>
<text x="105" y="175" text-anchor="middle" font-size="6pt" dy="1.98pt" fill="#000000">10</text>
<text x="77" y="203" text-anchor="middle" font-size="6pt" dy="1.98pt" fill="#000000">12</text>
<text x="35" y="217" text-anchor="middle" font-size="6pt" dy="1.98pt" fill="#000000">24</text>
<text x="63" y="217" text-anchor="middle" font-size="6pt" dy="1.98pt" fill="#000000">24</text>
<text x="35" y="231" text-anchor="middle" font-size="6pt" dy="1.98pt" fill="#000000">1</text>
<text x="49" y="231" text-anchor="middle" font-size="6pt" dy="1.98pt" fill="#000000">5</text>
<text x="35" y="245" text-anchor="middle" font-size="6pt" dy="1.98pt" fill="#000000">9</text>
<text x="-3.5" y="7" text-anchor="end" font-size="9pt" dy="2.97pt" fill="#000000">fsync</text>
<text x="-3.5" y="21" text-anchor="end" font-size="9pt" dy="2.97pt" fill="#000000">sync</text>
<text x="-3.5" y="35" text-anchor="end" font-size="9pt" dy="2.97pt" fill="#000000">open</text>
<text x="-3.5" y="49" text-anchor="end" font-size="9pt" dy="2.97pt" fill="#000000">link</text>
<text x="-3.5" y="63" text-anchor="end" font-size="9pt" dy="2.97pt" fill="#000000">unlink</text>
<text x="-3.5" y="77" text-anchor="end" font-size="9pt" dy="2.97pt" fill="#000000">rename</text>
<text x="-3.5" y="91" text-anchor="end" font-size="9pt" dy="2.97pt" fill="#000000">stat</text>
<text x="-3.5" y="105" text-anchor="end" font-size="9pt" dy="2.97pt" fill="#000000">fstat</text>
<text x="-3.5" y="119" text-anchor="end" font-size="9pt" dy="2.97pt" fill="#000000">lseek</text>
<text x="-3.5" y="133" text-anchor="end" font-size="9pt" dy="2.97pt" fill="#000000">close</text>
<text x="-3.5" y="147" text-anchor="end" font-size="9pt" dy="2.97pt" fill="#000000">pipe</text>
<text x="-3.5" y="161" text-anchor="end" font-size="9pt" dy="2.97pt" fill="#000000">read</text>
<text x="-3.5" y="175" text-anchor="end" font-size="9pt" dy="2.97pt" fill="#000000">write</text>
<text x="-3.5" y="189" text-anchor="end" font-size="9pt" dy="2.97pt" fill="#000000">pread</text>
<text x="-3.5" y="203" text-anchor="end" font-size="9pt" dy="2.97pt" fill="#000000">pwrite</text>
<text x="-3.5" y="217" text-anchor="end" font-size="9pt" dy="2.97pt" fill="#000000">mmap</text>
<text x="-3.5" y="231" text-anchor="end" font-size="9pt" dy="2.97pt" fill="#000000">munmap</text>
<text x="-3.5" y="245" text-anchor="end" font-size="9pt" dy="2.97pt" fill="#000000">mprotect</text>
<text x="-3.5" y="259" text-anchor="end" font-size="9pt" dy="2.97pt" fill="#000000">memread</text>
<text x="-3.5" y="273" text-anchor="end" font-size="9pt" dy="2.97pt" fill="#000000">memwrite</text>
<text x="7" y="-3.5" text-anchor="start" font-size="9pt" dy="2.97pt" transform="rotate(-90 7,-3.5)" fill="#000000">memwrite</text>
<text x="21" y="-3.5" text-anchor="start" font-size="9pt" dy="2.97pt" transform="rotate(-90 21,-3.5)" fill="#000000">memread</text>
<text x="35" y="-3.5" text-anchor="start" font-size="9pt" dy="2.97pt" transform="rotate(-90 35,-3.5)" fill="#000000">mprotect</text>
<text x="49" y="-3.5" text-anchor="start" font-size="9pt" dy="2.97pt" transform="rotate(-90 49,-3.5)" fill="#000000">munmap</text>
<text x="63" y="-3.5" text-anchor="start" font-size="9pt" dy="2.97pt" transform="rotate(-90 63,-3.5)" fill="#000000">mmap</text>
<text x="77" y="-3.5" text-anchor="start" font-size="9pt" dy="2.97pt" transform="rotate(-90 77,-3.5)" fill="#000000">pwrite</text>
<text x="91" y="-3.5" text-anchor="start" font-size="9pt" dy="2.97pt" transform="rotate(-90 91,-3.5)" fill="#000000">pread</text>
<text x="105" y="-3.5" text-anchor="start" font-size="9pt" dy="2.97pt" transform="rotate(-90 105,-3.5)" fill="#000000">write</text>
<text x="119" y="-3.5" text-anchor="start" font-size="9pt" dy="2.97pt" transform="rotate(-90 119,-3.5)" fill="#000000">read</text>
<text x="133" y="-3.5" text-anchor="start" font-size="9pt" dy="2.97pt" transform="rotate(-90 133,-3.5)" fill="#000000">pipe</text>
<text x="147" y="-3.5" text-anchor="start" font-size="9pt" dy="2.97pt" transform="rotate(-90 147,-3.5)" fill="#000000">close</text>
<text x="161" y="-3.5" text-anchor="start" font-size="9pt" dy="2.97pt" transform="rotate(-90 161,-3.5)" fill="#000000">lseek</text>
<text x="175" y="-3.5" text-anchor="start" font-size="9pt" dy="2.97pt" transform="rotate(-90 175,-3.5)" fill="#000000">fstat</text>
<text x="189" y="-3.5" text-anchor="start" font-size="9pt" dy="2.97pt" transform="rotate(-90 189,-3.5)" fill="#000000">stat</text>
<text x="203" y="-3.5" text-anchor="start" font-size="9pt" dy="2.97pt" transform="rotate(-90 203,-3.5)" fill="#000000">rename</text>
<text x="217" y="-3.5" text-anchor="start" font-size="9pt" dy="2.97pt" transform="rotate(-90 217,-3.5)" fill="#000000">unlink</text>
<text x="231" y="-3.5" text-anchor="start" font-size="9pt" dy="2.97pt" transform="rotate(-90 231,-3.5)" fill="#000000">link</text>
<text x="245" y="-3.5" text-anchor="start" font-size="9pt" dy="2.97pt" transform="rotate(-90 245,-3.5)" fill="#000000">open</text>
<text x="259" y="-3.5" text-anchor="start" font-size="9pt" dy="2.97pt" transform="rotate(-90 259,-3.5)" fill="#000000">sync</text>
<text x="273" y="-3.5" text-anchor="start" font-size="9pt" dy="2.97pt" transform="rotate(-90 273,-3.5)" fill="#000000">fsync</text>
<g transform="translate(266,140)">
<path d="M0 0 H14 V11.25 H0 Z" fill="#00e80a" />
<g clip-path="url(#clip1)">
<path d="M-14 0 L11.25 25.25" fill="none" stroke="#4cee53" stroke-width="4.94974746831" />
<path d="M-14 -14 L25.25 25.25" fill="none" stroke="#4cee53" stroke-width="4.94974746831" />
<path d="M0 -14 L28 14" fill="none" stroke="#4cee53" stroke-width="4.94974746831" />
</g>
<path d="M0 0 H14 V11.25 H0 Z" fill="none" stroke="#000000" />
<rect x="0" y="11.25" width="14" height="128.75" fill="#f3f318" />
<rect x="0" y="13.825" width="14" height="126.175" fill="#f3ef19" />
<rect x="0" y="16.4" width="14" height="123.6" fill="#f4eb19" />
<rect x="0" y="18.975" width="14" height="121.025" fill="#f4e71a" />
<rect x="0" y="21.55" width="14" height="118.45" fill="#f4e31a" />
<rect x="0" y="24.125" width="14" height="115.875" fill="#f4df1b" />
<rect x="0" y="26.7" width="14" height="113.3" fill="#f5da1b" />
<rect x="0" y="29.275" width="14" height="110.725" fill="#f5d61c" />
<rect x="0" y="31.85" width="14" height="108.15" fill="#f5d21c" />
<rect x="0" y="34.425" width="14" height="105.575" fill="#f5ce1d" />
<rect x="0" y="37" width="14" height="103" fill="#f6ca1e" />
<rect x="0" y="39.575" width="14" height="100.425" fill="#f6c61e" />
<rect x="0" y="42.15" width="14" height="97.85" fill="#f6c11f" />
<rect x="0" y="44.725" width="14" height="95.275" fill="#f6bd1f" />
<rect x="0" y="47.3" width="14" height="92.7" fill="#f6b920" />
<rect x="0" y="49.875" width="14" height="90.125" fill="#f7b520" />
<rect x="0" y="52.45" width="14" height="87.55" fill="#f7b121" />
<rect x="0" y="55.025" width="14" height="84.975" fill="#f7ad21" />
<rect x="0" y="57.6" width="14" height="82.4" fill="#f7a922" />
<rect x="0" y="60.175" width="14" height="79.825" fill="#f8a522" />
<rect x="0" y="62.75" width="14" height="77.25" fill="#f8a123" />
<rect x="0" y="65.325" width="14" height="74.675" fill="#f89d23" />
<rect x="0" y="67.9" width="14" height="72.1" fill="#f89924" />
<rect x="0" y="70.475" width="14" height="69.525" fill="#f99524" />
<rect x="0" y="73.05" width="14" height="66.95" fill="#f99125" />
<rect x="0" y="75.625" width="14" height="64.375" fill="#f98d25" />
<rect x="0" y="78.2" width="14" height="61.8" fill="#f98926" />
<rect x="0" y="80.775" width="14" height="59.225" fill="#f98526" />
<rect x="0" y="83.35" width="14" height="56.65" fill="#fa8127" />
<rect x="0" y="85.925" width="14" height="54.075" fill="#fa7e28" />
<rect x="0" y="88.5" width="14" height="51.5" fill="#fa7a28" />
<rect x="0" y="91.075" width="14" height="48.925" fill="#fa7629" />
<rect x="0" y="93.65" width="14" height="46.35" fill="#fb7229" />
<rect x="0" y="96.225" width="14" height="43.775" fill="#fb6e2a" />
<rect x="0" y="98.8" width="14" height="41.2" fill="#fb6a2a" />
<rect x="0" y="101.375" width="14" height="38.625" fill="#fb662b" />
<rect x="0" y="103.95" width="14" height="36.05" fill="#fc632b" />
<rect x="0" y="106.525" width="14" height="33.475" fill="#fc5f2c" />
<rect x="0" y="109.1" width="14" height="30.9" fill="#fc5b2c" />
<rect x="0" y="111.675" width="14" height="28.325" fill="#fc572d" />
<rect x="0" y="114.25" width="14" height="25.75" fill="#fc542e" />
<rect x="0" y="116.825" width="14" height="23.175" fill="#fd502e" />
<rect x="0" y="119.4" width="14" height="20.6" fill="#fd4c2f" />
<rect x="0" y="121.975" width="14" height="18.025" fill="#fd482f" />
<rect x="0" y="124.55" width="14" height="15.45" fill="#fd4530" />
<rect x="0" y="127.125" width="14" height="12.875" fill="#fe4130" />
<rect x="0" y="129.7" width="14" height="10.3" fill="#fe3d31" />
<rect x="0" y="132.275" width="14" height="7.725" fill="#fe3a31" />
<rect x="0" y="134.85" width="14" height="5.15" fill="#fe3632" />
<rect x="0" y="137.425" width="14" height="2.575" fill="#ff3232" />
<rect x="0" y="11.25" width="14" height="128.75" fill="none" stroke="#000000" />
<text x="-3.5" y="5.625" text-anchor="end" font-size="9pt" dy="2.97pt" fill="#000000">100%</text>
<text x="-3.5" y="134.375" text-anchor="end" font-size="9pt" dy="2.97pt" fill="#000000">0%</text>
</g>
</svg>
